<svg width="24" height="24" viewBox="0 0 24 24" fill="none" xmlns="http://www.w3.org/2000/svg">
<path d="M12 22.75C6.07 22.75 1.25 17.93 1.25 12C1.25 6.07 6.07 1.25 12 1.25C17.93 1.25 22.75 6.07 22.75 12C22.75 17.93 17.93 22.75 12 22.75ZM12 2.75C6.9 2.75 2.75 6.9 2.75 12C2.75 17.1 6.9 21.25 12 21.25C17.1 21.25 21.25 17.1 21.25 12C21.25 6.9 17.1 2.75 12 2.75Z" fill="#34CB6A"/>
<path d="M10.58 15.5801C10.3812 15.5799 10.1905 15.5008 10.05 15.3601L7.22002 12.5301C7.08054 12.389 7.00232 12.1985 7.00232 12.0001C7.00232 11.8017 7.08054 11.6112 7.22002 11.4701C7.51002 11.1801 7.99002 11.1801 8.28002 11.4701L10.58 13.7701L15.72 8.6301C16.01 8.3401 16.49 8.3401 16.78 8.6301C17.07 8.9201 17.07 9.4001 16.78 9.6901L11.11 15.3601C10.9695 15.5008 10.7789 15.5799 10.58 15.5801Z" fill="#34CB6A"/>
</svg>
