<svg width="88" height="88" viewBox="0 0 88 88" fill="none" xmlns="http://www.w3.org/2000/svg">
<path fill-rule="evenodd" clip-rule="evenodd" d="M44 88C68.3005 88 88 68.3005 88 44C88 19.6995 68.3005 0 44 0C19.6995 0 0 19.6995 0 44C0 68.3005 19.6995 88 44 88ZM53.9942 35.8923C53.9942 38.0253 53.5922 39.8247 52.7883 41.2904C51.9843 42.7498 50.8993 43.8569 49.5332 44.6115C48.167 45.36 46.6437 45.7342 44.9633 45.7342C43.2708 45.7342 41.7414 45.3568 40.3753 44.6022C39.0152 43.8413 37.9332 42.7311 37.1293 41.2716C36.3313 39.806 35.9324 38.0129 35.9324 35.8923C35.9324 33.7593 36.3313 31.963 37.1293 30.5036C37.9332 29.0379 39.0152 27.9309 40.3753 27.1824C41.7414 26.4278 43.2708 26 44.9633 26C46.6437 26 48.167 26.4278 49.5332 27.1824C50.8993 27.9309 51.9843 29.0379 52.7883 30.5036C53.5922 31.963 53.9942 33.7593 53.9942 35.8923ZM48.8078 35.8923C48.8078 34.7447 48.6597 33.778 48.3635 32.9921C48.0733 32.2001 47.6411 31.6013 47.0669 31.1959C46.4987 30.7843 45.7975 30.5785 44.9633 30.5785C44.1291 30.5785 43.4249 30.7843 42.8506 31.1959C42.2824 31.6013 41.8502 32.2001 41.554 32.9921C41.2639 33.778 41.1188 34.7447 41.1188 35.8923C41.1188 37.0399 41.2639 38.0097 41.554 38.8018C41.8502 39.5877 42.2824 40.1864 42.8506 40.5981C43.4249 41.0035 44.1291 41.2062 44.9633 41.2062C45.7975 41.2062 46.4987 41.0035 47.0669 40.5981C47.6411 40.1864 48.0733 39.5877 48.3635 38.8018C48.6597 38.0097 48.8078 37.0399 48.8078 35.8923ZM21.3796 45.4722H16.0251L22.0687 26.026H28.9597L35.0891 45.4722H29.6488L28.5758 41.8049H22.4526L21.3796 45.4722ZM27.4371 37.9131L25.5867 31.5888H25.4417L23.5913 37.9131H27.4371ZM54.8926 26V30.5036H60.5316V45.4722H65.5005V30.5036H71V26H54.8926ZM25.9619 54.9977H23.0356C23.0149 54.7479 22.9595 54.5213 22.8696 54.3178C22.7831 54.1144 22.662 53.9395 22.5064 53.7932C22.3542 53.6433 22.1691 53.5291 21.9512 53.4506C21.7333 53.3685 21.486 53.3274 21.2093 53.3274C20.725 53.3274 20.3151 53.4488 19.9796 53.6915C19.6475 53.9342 19.395 54.2821 19.2221 54.7354C19.0526 55.1887 18.9678 55.7329 18.9678 56.3682C18.9678 57.0392 19.0543 57.6013 19.2273 58.0545C19.4037 58.5042 19.6579 58.8433 19.99 59.0717C20.322 59.2965 20.7215 59.409 21.1885 59.409C21.4549 59.409 21.6935 59.375 21.9045 59.3072C22.1155 59.2359 22.2989 59.1341 22.4545 59.0021C22.6102 58.87 22.7364 58.7112 22.8333 58.5256C22.9336 58.3365 23.001 58.1241 23.0356 57.8886L25.9619 57.91C25.9273 58.374 25.8011 58.8468 25.5832 59.3286C25.3653 59.8069 25.0557 60.2494 24.6544 60.6563C24.2566 61.0596 23.7637 61.3844 23.1757 61.6306C22.5877 61.8769 21.9045 62 21.1262 62C20.1508 62 19.2757 61.7841 18.5009 61.3522C17.7295 60.9204 17.119 60.2851 16.6693 59.4464C16.2231 58.6077 16 57.5816 16 56.3682C16 55.1476 16.2283 54.1198 16.6849 53.2846C17.1415 52.4459 17.7572 51.8124 18.532 51.3842C19.3068 50.9523 20.1716 50.7364 21.1262 50.7364C21.7973 50.7364 22.4147 50.831 22.9785 51.0201C23.5424 51.2093 24.037 51.4859 24.4625 51.8499C24.8879 52.2104 25.2304 52.6547 25.4898 53.1829C25.7492 53.7111 25.9066 54.3161 25.9619 54.9977ZM27.3123 53.6272V61.8501H30.1763V53.6272H27.3123ZM27.7481 52.3745C28.0248 52.6386 28.3569 52.7707 28.7443 52.7707C29.1351 52.7707 29.4672 52.6386 29.7405 52.3745C30.0172 52.1104 30.1556 51.7928 30.1556 51.4216C30.1556 51.0505 30.0172 50.7328 29.7405 50.4687C29.4672 50.2046 29.1351 50.0726 28.7443 50.0726C28.3569 50.0726 28.0248 50.2046 27.7481 50.4687C27.4714 50.7328 27.333 51.0505 27.333 51.4216C27.333 51.7928 27.4714 52.1104 27.7481 52.3745ZM34.4996 57.2247V61.8501H31.6356V53.6272H34.3544V55.1904H34.4374C34.6103 54.6694 34.9147 54.2607 35.3505 53.9645C35.7898 53.6683 36.3018 53.5202 36.8863 53.5202C37.4502 53.5202 37.9396 53.654 38.3547 53.9217C38.7732 54.1858 39.0967 54.5498 39.3249 55.0138C39.5567 55.4777 39.6708 56.0077 39.6674 56.6037V61.8501H36.8033V57.2247C36.8068 56.8179 36.7065 56.4985 36.5024 56.2665C36.3018 56.0345 36.0216 55.9185 35.6619 55.9185C35.4266 55.9185 35.2208 55.972 35.0444 56.0791C34.8715 56.1826 34.7383 56.3325 34.6449 56.5288C34.5515 56.7215 34.5031 56.9535 34.4996 57.2247ZM42.7001 61.4968C43.3158 61.8323 44.0491 62 44.9 62C45.6368 62 46.2801 61.8858 46.8301 61.6574C47.3836 61.4254 47.828 61.1006 48.1636 60.6831C48.4991 60.2619 48.7118 59.7658 48.8018 59.1948H46.1868C46.1314 59.3483 46.0449 59.4803 45.9273 59.591C45.8097 59.698 45.6679 59.7801 45.5019 59.8372C45.3393 59.8943 45.1594 59.9229 44.9623 59.9229C44.6786 59.9229 44.4365 59.864 44.2359 59.7462C44.0352 59.6284 43.8813 59.4661 43.7741 59.2591C43.6669 59.0521 43.6133 58.8165 43.6133 58.5524V58.4239H48.8018V57.7387C48.8018 57.0856 48.7084 56.4985 48.5216 55.9774C48.3348 55.4563 48.0685 55.0138 47.7225 54.6497C47.3766 54.2821 46.9598 54.002 46.4721 53.8093C45.9844 53.6165 45.4396 53.5202 44.8377 53.5202C44.0145 53.5202 43.3002 53.6968 42.6949 54.0502C42.0896 54.4035 41.6209 54.8978 41.2888 55.5331C40.9567 56.1683 40.7907 56.9107 40.7907 57.7601C40.7907 58.6452 40.955 59.4054 41.2836 60.0407C41.6157 60.6724 42.0878 61.1577 42.7001 61.4968ZM43.6133 56.7965C43.6202 56.5574 43.6807 56.3486 43.7948 56.1701C43.9125 55.9917 44.0681 55.8525 44.2618 55.7526C44.4555 55.6491 44.6682 55.5973 44.9 55.5973C45.1387 55.5973 45.3514 55.6491 45.5382 55.7526C45.7284 55.8525 45.8789 55.9935 45.9896 56.1755C46.1037 56.3539 46.1625 56.5609 46.166 56.7965H43.6133ZM49.9705 53.6272H52.6893V55.1904H52.7723C52.9383 54.6765 53.2219 54.2697 53.6232 53.9699C54.0244 53.6701 54.5018 53.5202 55.0552 53.5202C55.6156 53.5202 56.0981 53.6736 56.5028 53.9806C56.9075 54.2839 57.1514 54.6872 57.2344 55.1904H57.3174C57.4523 54.6872 57.7394 54.2839 58.1787 53.9806C58.618 53.6736 59.1334 53.5202 59.7249 53.5202C60.4893 53.5202 61.1085 53.7736 61.5824 54.2804C62.0597 54.7872 62.2984 55.4617 62.2984 56.304V61.8501H59.4343V57.0534C59.4343 56.693 59.3461 56.411 59.1697 56.2076C58.9933 56.0006 58.7564 55.8971 58.4589 55.8971C58.1649 55.8971 57.9314 56.0006 57.7584 56.2076C57.5889 56.411 57.5042 56.693 57.5042 57.0534V61.8501H54.7647V57.0534C54.7647 56.693 54.6765 56.411 54.5 56.2076C54.3236 56.0006 54.0867 55.8971 53.7892 55.8971C53.5921 55.8971 53.4226 55.9435 53.2807 56.0363C53.1389 56.1291 53.0282 56.2629 52.9487 56.4378C52.8726 56.6091 52.8345 56.8143 52.8345 57.0534V61.8501H49.9705V53.6272ZM64.5826 61.7216C64.9735 61.8929 65.4231 61.9786 65.9316 61.9786C66.2775 61.9786 66.594 61.9358 66.8811 61.8501C67.1717 61.7645 67.4294 61.627 67.6542 61.4379C67.8825 61.2487 68.0762 61.0007 68.2353 60.6938H68.2976V61.8501H70.9749V56.2183C70.9749 55.8364 70.8901 55.4831 70.7206 55.1583C70.5546 54.83 70.3125 54.5445 69.9942 54.3018C69.676 54.0555 69.2903 53.8646 68.8372 53.729C68.3841 53.5898 67.8721 53.5202 67.3014 53.5202C66.5093 53.5202 65.8486 53.6487 65.3194 53.9056C64.7902 54.159 64.3872 54.4981 64.1105 54.9228C63.8372 55.3439 63.6833 55.8043 63.6487 56.304H66.2844C66.319 56.0506 66.4211 55.8632 66.5906 55.7418C66.7635 55.6169 66.9866 55.5545 67.2599 55.5545C67.5089 55.5545 67.713 55.6116 67.8721 55.7258C68.0312 55.84 68.1108 56.0042 68.1108 56.2183V56.2397C68.1108 56.3968 68.0503 56.5234 67.9292 56.6198C67.8081 56.7126 67.611 56.7858 67.3377 56.8393C67.0679 56.8893 66.7099 56.9321 66.2637 56.9678C65.8521 56.9999 65.4681 57.0695 65.1118 57.1766C64.759 57.2836 64.4494 57.4389 64.1831 57.6423C63.9168 57.8457 63.7092 58.1081 63.5605 58.4293C63.4117 58.7469 63.3374 59.1306 63.3374 59.5803C63.3374 60.1263 63.4481 60.576 63.6694 60.9293C63.8908 61.2826 64.1952 61.5467 64.5826 61.7216ZM67.4778 59.9764C67.2876 60.0692 67.0835 60.1156 66.8656 60.1156C66.6234 60.1156 66.4245 60.0549 66.2689 59.9336C66.1132 59.8122 66.0354 59.6374 66.0354 59.409C66.0354 59.2662 66.0683 59.1377 66.134 59.0235C66.2032 58.9057 66.3069 58.8076 66.4453 58.7291C66.5871 58.647 66.7687 58.5881 66.9901 58.5524C67.1042 58.5346 67.2132 58.5149 67.3169 58.4935C67.4242 58.4721 67.5245 58.4489 67.6179 58.4239C67.7147 58.3989 67.8047 58.3722 67.8877 58.3436C67.9742 58.3151 68.0555 58.2847 68.1315 58.2526V58.9378C68.1315 59.1877 68.071 59.4 67.95 59.5749C67.8289 59.7498 67.6715 59.8836 67.4778 59.9764Z" fill="#FFBF33"/>
</svg>
