<svg width="24" height="24" viewBox="0 0 24 24" fill="none" xmlns="http://www.w3.org/2000/svg">
<path d="M21.3 10.8404C21.69 10.8404 22 10.5304 22 10.1404V9.21035C22 5.11035 20.75 3.86035 16.65 3.86035H7.35C3.25 3.86035 2 5.11035 2 9.21035V9.68035C2 10.0704 2.31 10.3804 2.7 10.3804C3.6 10.3804 4.33 11.1104 4.33 12.0104C4.33 12.9104 3.6 13.6304 2.7 13.6304C2.31 13.6304 2 13.9404 2 14.3304V14.8004C2 18.9004 3.25 20.1504 7.35 20.1504H16.65C20.75 20.1504 22 18.9004 22 14.8004C22 14.4104 21.69 14.1004 21.3 14.1004C20.4 14.1004 19.67 13.3704 19.67 12.4704C19.67 11.5704 20.4 10.8404 21.3 10.8404ZM9 8.88035C9.55 8.88035 10 9.33035 10 9.88035C10 10.4304 9.56 10.8804 9 10.8804C8.45 10.8804 8 10.4304 8 9.88035C8 9.33035 8.44 8.88035 9 8.88035ZM15 15.8804C14.44 15.8804 13.99 15.4304 13.99 14.8804C13.99 14.3304 14.44 13.8804 14.99 13.8804C15.54 13.8804 15.99 14.3304 15.99 14.8804C15.99 15.4304 15.56 15.8804 15 15.8804ZM15.9 9.48035L9.17 16.2104C9.02 16.3604 8.83 16.4304 8.64 16.4304C8.45 16.4304 8.26 16.3604 8.11 16.2104C7.82 15.9204 7.82 15.4404 8.11 15.1504L14.84 8.42035C15.13 8.13035 15.61 8.13035 15.9 8.42035C16.19 8.71035 16.19 9.19035 15.9 9.48035Z" fill="white"/>
</svg>
