<svg width="32" height="32" viewBox="0 0 32 32" fill="none" xmlns="http://www.w3.org/2000/svg">
<circle cx="16" cy="16" r="16" fill="white" fill-opacity="0.05"/>
<path opacity="0.4" d="M24.2799 19.3256L18.8496 9.55101C18.1199 8.23586 17.1103 7.51465 15.9987 7.51465C14.8872 7.51465 13.8775 8.23586 13.1478 9.55101L7.71753 19.3256C7.03025 20.5728 6.95389 21.7692 7.5054 22.711C8.05692 23.6528 9.14298 24.1704 10.5684 24.1704H21.429C22.8545 24.1704 23.9406 23.6528 24.4921 22.711C25.0436 21.7692 24.9672 20.5643 24.2799 19.3256Z" fill="white"/>
<path d="M15.9977 18.3335C15.6498 18.3335 15.3613 18.045 15.3613 17.6971V13.4547C15.3613 13.1068 15.6498 12.8184 15.9977 12.8184C16.3456 12.8184 16.6341 13.1068 16.6341 13.4547V17.6971C16.6341 18.045 16.3456 18.3335 15.9977 18.3335Z" fill="white"/>
<path d="M15.9989 21.0917C15.948 21.0917 15.8886 21.0832 15.8292 21.0747C15.7783 21.0662 15.7274 21.0492 15.6765 21.0238C15.6255 21.0068 15.5746 20.9814 15.5237 20.9474C15.4813 20.9135 15.4389 20.8795 15.3965 20.8456C15.2437 20.6844 15.1504 20.4638 15.1504 20.2432C15.1504 20.0226 15.2437 19.802 15.3965 19.6408C15.4389 19.6068 15.4813 19.5729 15.5237 19.5389C15.5746 19.505 15.6255 19.4795 15.6765 19.4626C15.7274 19.4371 15.7783 19.4202 15.8292 19.4117C15.9395 19.3862 16.0583 19.3862 16.1601 19.4117C16.2195 19.4202 16.2704 19.4371 16.3213 19.4626C16.3722 19.4795 16.4231 19.505 16.474 19.5389C16.5165 19.5729 16.5589 19.6068 16.6013 19.6408C16.754 19.802 16.8474 20.0226 16.8474 20.2432C16.8474 20.4638 16.754 20.6844 16.6013 20.8456C16.5589 20.8795 16.5165 20.9135 16.474 20.9474C16.4231 20.9814 16.3722 21.0068 16.3213 21.0238C16.2704 21.0492 16.2195 21.0662 16.1601 21.0747C16.1092 21.0832 16.0498 21.0917 15.9989 21.0917Z" fill="white"/>
</svg>
